<svg width="100%" viewBox="0 0 680 620" role="img" xmlns="http://www.w3.org/2000/svg"
     style="font-family: system-ui, -apple-system, sans-serif; background: #ffffff;">
<title>Estrutura geral do projeto RAG — domínio elétrico</title>
<desc>Diagrama estrutural mostrando as camadas do projeto: UI, backend com ingestão, retrieval, agent e eval, infraestrutura com Qdrant e Supabase, e testes</desc>
<defs>
<marker id="arrow" viewBox="0 0 10 10" refX="8" refY="5" markerWidth="6" markerHeight="6" orient="auto-start-reverse">
<path d="M2 1L8 5L2 9" fill="none" stroke="context-stroke" stroke-width="1.5" stroke-linecap="round" stroke-linejoin="round"/>
</marker>
</defs>

<!-- UI layer -->
<rect x="220" y="32" width="240" height="52" rx="10" fill="#D3D1C7" stroke="#5F5E5A" stroke-width="0.5"/>
<text x="340" y="53" font-size="14" font-weight="500" fill="#2C2C2A" text-anchor="middle">UI — Streamlit</text>
<text x="340" y="73" font-size="12" fill="#5F5E5A" text-anchor="middle">ui/app.py</text>

<line x1="340" y1="84" x2="340" y2="114" stroke="#888780" stroke-width="1.5" marker-end="url(#arrow)"/>

<!-- Backend container -->
<rect x="40" y="114" width="600" height="294" rx="16" fill="#E1F5EE" stroke="#0F6E56" stroke-width="0.5"/>
<text x="68" y="142" font-size="14" font-weight="500" fill="#085041">src/</text>

<!-- ingestion -->
<rect x="64" y="154" width="148" height="100" rx="8" fill="#9FE1CB" stroke="#0F6E56" stroke-width="0.5"/>
<text x="138" y="178" font-size="14" font-weight="500" fill="#085041" text-anchor="middle">ingestion/</text>
<text x="138" y="200" font-size="12" fill="#0F6E56" text-anchor="middle">parser.py</text>
<text x="138" y="218" font-size="12" fill="#0F6E56" text-anchor="middle">chunker.py</text>
<text x="138" y="236" font-size="12" fill="#0F6E56" text-anchor="middle">embedder.py</text>

<!-- retrieval -->
<rect x="232" y="154" width="148" height="100" rx="8" fill="#9FE1CB" stroke="#0F6E56" stroke-width="0.5"/>
<text x="306" y="178" font-size="14" font-weight="500" fill="#085041" text-anchor="middle">retrieval/</text>
<text x="306" y="200" font-size="12" fill="#0F6E56" text-anchor="middle">hybrid.py</text>
<text x="306" y="218" font-size="12" fill="#0F6E56" text-anchor="middle">reranker.py</text>

<!-- agent -->
<rect x="400" y="154" width="148" height="100" rx="8" fill="#9FE1CB" stroke="#0F6E56" stroke-width="0.5"/>
<text x="474" y="178" font-size="14" font-weight="500" fill="#085041" text-anchor="middle">agent/</text>
<text x="474" y="200" font-size="12" fill="#0F6E56" text-anchor="middle">chain.py</text>
<text x="474" y="218" font-size="12" fill="#0F6E56" text-anchor="middle">prompts.py</text>

<!-- eval -->
<rect x="64" y="276" width="148" height="80" rx="8" fill="#FAC775" stroke="#854F0B" stroke-width="0.5"/>
<text x="138" y="300" font-size="14" font-weight="500" fill="#412402" text-anchor="middle">eval/</text>
<text x="138" y="320" font-size="12" fill="#854F0B" text-anchor="middle">benchmark.py</text>
<text x="138" y="338" font-size="12" fill="#854F0B" text-anchor="middle">RAGAS metrics</text>

<!-- core -->
<rect x="232" y="276" width="148" height="80" rx="8" fill="#D3D1C7" stroke="#5F5E5A" stroke-width="0.5"/>
<text x="306" y="300" font-size="14" font-weight="500" fill="#2C2C2A" text-anchor="middle">core/</text>
<text x="306" y="320" font-size="12" fill="#5F5E5A" text-anchor="middle">config.py</text>
<text x="306" y="338" font-size="12" fill="#5F5E5A" text-anchor="middle">settings · logging</text>

<!-- infrastructure -->
<rect x="400" y="276" width="148" height="80" rx="8" fill="#CECBF6" stroke="#534AB7" stroke-width="0.5"/>
<text x="474" y="296" font-size="14" font-weight="500" fill="#26215C" text-anchor="middle">infrastructure/</text>
<text x="474" y="316" font-size="12" fill="#534AB7" text-anchor="middle">vector_store.py</text>
<text x="474" y="334" font-size="12" fill="#534AB7" text-anchor="middle">llm_provider.py</text>

<!-- arrows to infra -->
<line x1="200" y1="408" x2="200" y2="438" stroke="#7F77DD" stroke-width="1.5" marker-end="url(#arrow)"/>
<line x1="474" y1="408" x2="474" y2="438" stroke="#7F77DD" stroke-width="1.5" marker-end="url(#arrow)"/>

<!-- Qdrant -->
<rect x="40" y="438" width="264" height="76" rx="12" fill="#CECBF6" stroke="#534AB7" stroke-width="0.5"/>
<text x="172" y="462" font-size="14" font-weight="500" fill="#26215C" text-anchor="middle">Qdrant</text>
<text x="172" y="482" font-size="12" fill="#534AB7" text-anchor="middle">vetores · HNSW · cosine</text>
<text x="172" y="500" font-size="12" fill="#534AB7" text-anchor="middle">1536d · busca semântica</text>

<!-- Supabase -->
<rect x="320" y="438" width="200" height="76" rx="12" fill="#D3D1C7" stroke="#5F5E5A" stroke-width="0.5"/>
<text x="420" y="462" font-size="14" font-weight="500" fill="#2C2C2A" text-anchor="middle">Supabase</text>
<text x="420" y="482" font-size="12" fill="#5F5E5A" text-anchor="middle">dados estruturados</text>
<text x="420" y="500" font-size="12" fill="#5F5E5A" text-anchor="middle">opcional</text>

<!-- LLM -->
<rect x="536" y="438" width="104" height="76" rx="12" fill="#F5C4B3" stroke="#993C1D" stroke-width="0.5"/>
<text x="588" y="462" font-size="14" font-weight="500" fill="#4A1B0C" text-anchor="middle">LLM</text>
<text x="588" y="482" font-size="12" fill="#993C1D" text-anchor="middle">GPT-4o-mini</text>
<text x="588" y="500" font-size="12" fill="#993C1D" text-anchor="middle">OpenAI API</text>

<!-- tests -->
<rect x="40" y="540" width="184" height="56" rx="8" fill="#F1EFE8" stroke="#B4B2A9" stroke-width="0.5"/>
<text x="132" y="562" font-size="14" font-weight="500" fill="#444441" text-anchor="middle">tests/</text>
<text x="132" y="582" font-size="12" fill="#888780" text-anchor="middle">ingestion · retrieval · agent</text>

<!-- scripts -->
<rect x="244" y="540" width="184" height="56" rx="8" fill="#F1EFE8" stroke="#B4B2A9" stroke-width="0.5"/>
<text x="336" y="562" font-size="14" font-weight="500" fill="#444441" text-anchor="middle">scripts/</text>
<text x="336" y="582" font-size="12" fill="#888780" text-anchor="middle">ingest_data · run_eval</text>

<!-- docs assets -->
<rect x="448" y="540" width="192" height="56" rx="8" fill="#F1EFE8" stroke="#B4B2A9" stroke-width="0.5"/>
<text x="544" y="562" font-size="14" font-weight="500" fill="#444441" text-anchor="middle">docs/ · assets/</text>
<text x="544" y="582" font-size="12" fill="#888780" text-anchor="middle">arquitetura · diagramas</text>
</svg>
